# File created by Blade
# Date/Time:  Tue Jan 27 17:09:01 2015
#---------------------------------------------------------
:version 1.10
:name HOM
:units
  mass 1.0
  length 1.000000
  angle deg
:documentation
     Acclaim Skeleton File
:root
   axis xyz
   order TX TY TZ RX RY RZ
   position 0.000000 0.000000 0.000000
   orientation 0 0 0
:bonedata
   begin
      id 1
      name Spine_dum
      direction 0.000000 1.000000 0.000000
      length 7.539951
      axis 0.0 0.0 0.0 xyz
   end
   begin
      id 2
      name LeftUpLeg_dum
      direction 1.000000 0.000000 0.000000
      length 3.345476
      axis 0.0 0.0 0.0 xyz
   end
   begin
      id 3
      name RightUpLeg_dum
      direction -1.000000 0.000000 0.000000
      length 3.345476
      axis 0.0 0.0 0.0 xyz
   end
   begin
      id 4
      name Spine
      direction 0.000000 1.000000 0.000000
      length 0.000000
      axis 0.0 0.0 0.0 xyz
      dof rx ry rz
   end
   begin
      id 5
      name Spine_dum1
      direction 0.000000 1.000000 0.000000
      length 15.093809
      axis 0.0 0.0 0.0 xyz
   end
   begin
      id 6
      name Spine_dum2
      direction 0.000000 1.000000 0.000000
      length 9.738928
      axis 0.0 0.0 0.0 xyz
   end
   begin
      id 7
      name Spine_dum3
      direction 0.000000 1.000000 0.000000
      length 9.738928
      axis 0.0 0.0 0.0 xyz
   end
   begin
      id 8
      name Head
      direction 0.000000 1.000000 0.000000
      length 4.527550
      axis 0.0 0.0 0.0 xyz
      dof rx ry rz
   end
   begin
      id 9
      name LeftShoulder
      direction 1.000000 0.000000 0.000000
      length 7.084015
      axis 0.0 0.0 -90.0 xyz
      dof rx ry rz
   end
   begin
      id 10
      name LeftArm
      direction 1.000000 0.000000 0.000000
      length 10.259319
      axis 0.0 0.0 -90.0 xyz
      dof rx ry rz
   end
   begin
      id 11
      name LeftForeArm
      direction 1.000000 0.000000 0.000000
      length 9.896984
      axis 0.0 0.0 -90.0 xyz
      dof ry rz rx
   end
   begin
      id 12
      name LeftHand
      direction 0.000000 0.000000 0.000000
      length 0.000000
      axis 0.0 0.0 -90.0 xyz
      dof rx ry rz
   end
   begin
      id 13
      name LeftHand_dum1
      direction 0.000000 0.000000 0.000000
      length 0.000000
      axis 0.0 0.0 -90.0 xyz
   end
   begin
      id 14
      name LeftHand_dum2
      direction 1.000000 0.000000 0.000000
      length 3.937000
      axis 0.0 0.0 -90.0 xyz
   end
   begin
      id 15
      name LeftHandThumb1
      direction 0.000000 0.000000 1.000000
      length 3.937000
      axis 0.0 0.0 -90.0 xyz
      dof rx rz ry
   end
   begin
      id 16
      name RightShoulder
      direction -1.000000 0.000000 0.000000
      length 7.084015
      axis 0.0 0.0 90.0 xyz
      dof rx ry rz
   end
   begin
      id 17
      name RightArm
      direction -1.000000 0.000000 0.000000
      length 10.259319
      axis 0.0 0.0 90.0 xyz
      dof rx ry rz
   end
   begin
      id 18
      name RightForeArm
      direction -1.000000 0.000000 0.000000
      length 9.896984
      axis 0.0 0.0 90.0 xyz
      dof ry rz rx
   end
   begin
      id 19
      name RightHand
      direction 0.000000 0.000000 0.000000
      length 0.000000
      axis 0.0 0.0 90.0 xyz
      dof rx ry rz
   end
   begin
      id 20
      name RightHand_dum1
      direction 0.000000 0.000000 0.000000
      length 0.000000
      axis 0.0 0.0 90.0 xyz
   end
   begin
      id 21
      name RightHand_dum2
      direction -1.000000 0.000000 0.000000
      length 3.937000
      axis 0.0 0.0 90.0 xyz
   end
   begin
      id 22
      name RightHandThumb1
      direction 0.000000 0.000000 1.000000
      length 3.937000
      axis 0.0 0.0 90.0 xyz
      dof rx rz ry
   end
   begin
      id 23
      name LeftUpLeg
      direction 0.000000 -1.000000 0.000000
      length 19.114733
      axis 0.0 0.0 0.0 xyz
      dof rx ry rz
   end
   begin
      id 24
      name LeftLeg
      direction 0.000000 -1.000000 0.000000
      length 16.045604
      axis 0.0 0.0 0.0 xyz
      dof rx ry rz
   end
   begin
      id 25
      name LeftFoot
      direction 0.000000 -0.258819 0.965926
      length 5.543155
      axis 15.0 0.0 0.0 xyz
      dof rx ry rz
   end
   begin
      id 26
      name LeftToeBase
      direction 0.000000 0.000000 1.000000
      length 2.952750
      axis 0.0 0.0 0.0 xyz
      dof rx ry rz
   end
   begin
      id 27
      name RightUpLeg
      direction 0.000000 -1.000000 0.000000
      length 19.114733
      axis 0.0 0.0 0.0 xyz
      dof rx ry rz
   end
   begin
      id 28
      name RightLeg
      direction 0.000000 -1.000000 0.000000
      length 16.045604
      axis 0.0 0.0 0.0 xyz
      dof rx ry rz
   end
   begin
      id 29
      name RightFoot
      direction 0.000000 -0.258819 0.965926
      length 5.543155
      axis 15.0 0.0 0.0 xyz
      dof rx ry rz
   end
   begin
      id 30
      name RightToeBase
      direction 0.000000 0.000000 1.000000
      length 2.952750
      axis 0.0 0.0 0.0 xyz
      dof rx ry rz
   end
:hierarchy
   begin
      root Spine_dum LeftUpLeg_dum RightUpLeg_dum
      Spine_dum Spine
      LeftUpLeg_dum LeftUpLeg
      RightUpLeg_dum RightUpLeg
      Spine Spine_dum1 Spine_dum2 Spine_dum3
      Spine_dum1 Head
      Spine_dum2 LeftShoulder
      Spine_dum3 RightShoulder
      LeftShoulder LeftArm
      LeftArm LeftForeArm
      LeftForeArm LeftHand
      LeftHand LeftHand_dum1 LeftHand_dum2
      LeftHand_dum1 LeftHandThumb1
      RightShoulder RightArm
      RightArm RightForeArm
      RightForeArm RightHand
      RightHand RightHand_dum1 RightHand_dum2
      RightHand_dum1 RightHandThumb1
      LeftUpLeg LeftLeg
      LeftLeg LeftFoot
      LeftFoot LeftToeBase
      RightUpLeg RightLeg
      RightLeg RightFoot
      RightFoot RightToeBase
   end

# File created by Blade
# Date/Time:  Tue Jan 27 17:08:52 2015
# Frame Rate: 120.000 fps
#------------------------------------------------------
:FULLY-SPECIFIED
:DEGREES
1215
root 4.852540 36.868654 -2.915827 -9.503514 6.586608 -14.983205
Spine 14.165202 2.809300 18.503446
Head -4.511174 -8.309240 -0.282766
LeftShoulder -2.764231 -6.288343 3.418105
LeftArm -6.402409 -13.973427 -56.258623
LeftForeArm 12.732028 -0.000000 122.624926
LeftHand -15.392744 0.000000 29.853378
LeftHandThumb1 -26.253704 0.000000 33.147579
RightShoulder -0.229749 -18.842238 0.538744
RightArm 16.900286 0.260980 57.530026
RightForeArm 240.178194 -0.000000 45.679780
RightHand 5.934694 -0.000000 -26.042664
RightHandThumb1 -24.326973 -0.000000 -32.862282
LeftUpLeg -4.847088 13.242197 10.663067
LeftLeg 29.692527 -0.000000 -0.000000
LeftFoot -27.386481 10.685717 -8.975079
LeftToeBase 12.896928 -0.000000 -0.000000
RightUpLeg -86.681434 -18.179246 16.138422
RightLeg 105.252648 -0.000000 -0.000000
RightFoot -0.078988 -0.568668 9.165464
RightToeBase 5.717796 -0.000000 -0.000000
1216
root 4.853735 36.868810 -2.925825 -9.509106 6.646655 -14.953034
Spine 14.161965 2.805063 18.444429
Head -4.606073 -8.373403 -0.113454
LeftShoulder -2.711699 -6.381753 3.454511
LeftArm -6.413383 -13.877647 -56.274549
LeftForeArm 12.742029 -0.000000 122.550532
LeftHand -15.389276 -0.000000 29.938298
LeftHandThumb1 -26.253704 0.000000 33.147579
RightShoulder -0.225563 -18.761174 0.507085
RightArm 16.944483 0.453026 57.515774
RightForeArm 240.053018 -0.000000 45.676609
RightHand 6.049239 -0.000000 -26.232363
RightHandThumb1 -24.326973 -0.000000 -32.862282
LeftUpLeg -4.844137 13.371793 10.662641
LeftLeg 29.664719 -0.000000 -0.000000
LeftFoot -27.417541 10.401357 -9.156848
LeftToeBase 13.065868 -0.000000 -0.000000
RightUpLeg -86.617607 -18.267599 16.012937
RightLeg 104.539838 -0.000000 -0.000000
RightFoot 0.184795 -0.473253 9.252521
RightToeBase 5.739486 -0.000000 -0.000000
1217
root 4.856785 36.870146 -2.943753 -9.471940 6.729880 -14.940319
Spine 14.116849 2.768945 18.416023
Head -4.695873 -8.405225 -0.006931
LeftShoulder -2.692611 -6.417610 3.474803
LeftArm -6.347806 -13.800437 -56.341134
LeftForeArm 12.761505 -0.000000 122.460379
LeftHand -15.352587 0.000000 30.072728
LeftHandThumb1 -26.253704 0.000000 33.147579
RightShoulder -0.206147 -18.712784 0.468307
RightArm 16.975020 0.551015 57.419560
RightForeArm 239.854961 -0.000000 45.721345
RightHand 6.054073 0.000000 -26.244343
RightHandThumb1 -24.326973 -0.000000 -32.862282
LeftUpLeg -4.917626 13.457754 10.644021
LeftLeg 29.661159 -0.000000 -0.000000
LeftFoot -27.422004 10.162956 -9.370993
LeftToeBase 13.185207 -0.000000 -0.000000
RightUpLeg -86.578575 -18.359787 15.891932
RightLeg 103.771049 -0.000000 -0.000000
RightFoot 0.456890 -0.363149 9.294462
RightToeBase 5.712480 -0.000000 -0.000000
1218
root 4.860328 36.869185 -2.955226 -9.449083 6.790279 -14.886289
Spine 14.081534 2.779106 18.323176
Head -4.793721 -8.515289 0.222197
LeftShoulder -2.662942 -6.419507 3.546825
LeftArm -6.263495 -13.741166 -56.456815
LeftForeArm 12.807944 -0.000000 122.370120
LeftHand -15.348454 -0.000000 30.221095
LeftHandThumb1 -26.253704 0.000000 33.147579
RightShoulder -0.197309 -18.685123 0.477997
RightArm 16.949993 0.587951 57.282582
RightForeArm 239.779387 -0.000000 45.785062
RightHand 6.339711 0.000000 -26.319419
RightHandThumb1 -24.326973 -0.000000 -32.862282
LeftUpLeg -4.947256 13.574597 10.600648
LeftLeg 29.638989 -0.000000 -0.000000
LeftFoot -27.423600 9.955698 -9.476026
LeftToeBase 13.332823 -0.000000 -0.000000
RightUpLeg -86.526061 -18.423190 15.736378
RightLeg 103.004475 -0.000000 -0.000000
RightFoot 0.730820 -0.260423 9.232843
RightToeBase 5.414764 -0.000000 -0.000000
1219
root 4.860472 36.867983 -2.965426 -9.429707 6.865379 -14.846158
Spine 14.044259 2.765065 18.237826
Head -4.849175 -8.585554 0.361126
LeftShoulder -2.636470 -6.433082 3.574884
LeftArm -6.191906 -13.686560 -56.475467
LeftForeArm 12.816691 -0.000000 122.297809
LeftHand -15.340267 -0.000000 30.340948
LeftHandThumb1 -26.253704 0.000000 33.147579
RightShoulder -0.200792 -18.717805 0.487570
RightArm 16.965351 0.509685 57.095373
RightForeArm 239.760091 -0.000000 45.845097
RightHand 6.476139 -0.000000 -26.281779
RightHandThumb1 -24.326973 -0.000000 -32.862282
LeftUpLeg -4.982253 13.675535 10.574826
LeftLeg 29.626522 -0.000000 -0.000000
LeftFoot -27.410571 9.730791 -9.577122
LeftToeBase 13.396619 -0.000000 -0.000000
RightUpLeg -86.479141 -18.503809 15.607209
RightLeg 102.229042 -0.000000 -0.000000
RightFoot 0.934634 -0.194740 9.127378
RightToeBase 5.479505 -0.000000 -0.000000
